<svg xmlns="http://www.w3.org/2000/svg" viewBox="0 0 181.34 64"><defs><style>.cls-1{fill:#ef8e81;}.cls-2{fill:#666;}</style></defs><g id="Layer_2" data-name="Layer 2"><g id="Layer_1-2" data-name="Layer 1"><path class="cls-1" d="M80.63,29.86q-9.69,0-9.69-10.63,0-5.3,2.64-8.08c1.75-1.86,4.27-2.8,7.55-2.8a14.35,14.35,0,0,1,6.45,1.41l-1.67,4.38c-.89-.36-1.71-.65-2.48-.88a8,8,0,0,0-2.3-.34q-4.42,0-4.42,6.27,0,6.09,4.42,6.09a10.06,10.06,0,0,0,3-.44,11.21,11.21,0,0,0,2.79-1.36v4.84a9.19,9.19,0,0,1-2.78,1.2A15.1,15.1,0,0,1,80.63,29.86Z"/><path class="cls-1" d="M101.13,29.86q-5,0-7.83-2.77t-2.82-7.83q0-5.21,2.61-8.06a9.26,9.26,0,0,1,7.2-2.85,9.13,9.13,0,0,1,6.85,2.51,9.49,9.49,0,0,1,2.45,6.92v2.75H96.21a5.43,5.43,0,0,0,1.43,3.76,5,5,0,0,0,3.75,1.36,15.49,15.49,0,0,0,3.54-.39A17.54,17.54,0,0,0,108.42,24v4.38a13.09,13.09,0,0,1-3.17,1.11A20.14,20.14,0,0,1,101.13,29.86Zm-.8-17.48a3.59,3.59,0,0,0-2.82,1.14,5.29,5.29,0,0,0-1.17,3.24h7.94a4.72,4.72,0,0,0-1.09-3.24A3.72,3.72,0,0,0,100.33,12.38Z"/><path class="cls-1" d="M119.85,29.49h-5.66V.62h5.66Z"/><path class="cls-1" d="M131.45,29.49h-5.66V.62h5.66Z"/><path class="cls-2" d="M83.67,46h-4.9v16.5H73.11V46H70V43.27l3.12-1.53V40.22c0-2.36.58-4.09,1.75-5.17s3-1.64,5.58-1.64a14.61,14.61,0,0,1,5.22.87l-1.45,4.16a10.53,10.53,0,0,0-3.16-.54,2,2,0,0,0-1.74.72,2.92,2.92,0,0,0-.54,1.82v1.3h4.9Z"/><path class="cls-2" d="M105.77,52.08q0,5.07-2.67,7.92a9.68,9.68,0,0,1-7.44,2.86,10.41,10.41,0,0,1-5.27-1.31,8.7,8.7,0,0,1-3.51-3.76,12.54,12.54,0,0,1-1.22-5.71q0-5.09,2.65-7.91a9.74,9.74,0,0,1,7.46-2.82,10.53,10.53,0,0,1,5.27,1.3,8.65,8.65,0,0,1,3.5,3.73A12.47,12.47,0,0,1,105.77,52.08Zm-14.34,0a8.69,8.69,0,0,0,1,4.66,4.21,4.21,0,0,0,6.55,0,8.89,8.89,0,0,0,1-4.67,8.57,8.57,0,0,0-1-4.62,4.26,4.26,0,0,0-6.55,0A8.54,8.54,0,0,0,91.43,52.08Z"/><path class="cls-2" d="M122,41.35a9.11,9.11,0,0,1,1.91.17l-.42,5.31a6.24,6.24,0,0,0-1.67-.19A6,6,0,0,0,117.62,48a5,5,0,0,0-1.52,3.9V62.49h-5.66V41.74h4.29l.84,3.49h.27a7.92,7.92,0,0,1,2.61-2.81A6.44,6.44,0,0,1,122,41.35Z"/><path class="cls-2" d="M137.09,62.86q-5,0-7.83-2.77t-2.82-7.83q0-5.2,2.6-8.06a9.3,9.3,0,0,1,7.21-2.85,9.13,9.13,0,0,1,6.85,2.51,9.49,9.49,0,0,1,2.45,6.92v2.75H132.17a5.43,5.43,0,0,0,1.43,3.76,5,5,0,0,0,3.75,1.36,15.49,15.49,0,0,0,3.54-.39A17.54,17.54,0,0,0,144.38,57v4.38a13.09,13.09,0,0,1-3.17,1.11A20.14,20.14,0,0,1,137.09,62.86Zm-.8-17.48a3.59,3.59,0,0,0-2.82,1.14,5.29,5.29,0,0,0-1.17,3.24h7.94a4.72,4.72,0,0,0-1.09-3.24A3.72,3.72,0,0,0,136.29,45.38Z"/><path class="cls-2" d="M164.62,56.33a5.72,5.72,0,0,1-2.21,4.86q-2.22,1.66-6.64,1.67a20.35,20.35,0,0,1-3.86-.31,14,14,0,0,1-3-.9V57a19.65,19.65,0,0,0,3.55,1.24,14.62,14.62,0,0,0,3.48.5c2,0,3.08-.59,3.08-1.78a1.5,1.5,0,0,0-.41-1.09,6,6,0,0,0-1.41-.94c-.67-.35-1.56-.77-2.67-1.24A16.38,16.38,0,0,1,151,51.82a5.18,5.18,0,0,1-1.63-2,6.44,6.44,0,0,1-.51-2.72A4.9,4.9,0,0,1,151,42.87a10.44,10.44,0,0,1,6.08-1.52A17.21,17.21,0,0,1,164.4,43l-1.71,4.08a31.07,31.07,0,0,0-2.91-1.1,9.24,9.24,0,0,0-2.76-.42c-1.67,0-2.51.45-2.51,1.35a1.59,1.59,0,0,0,.81,1.32,22,22,0,0,0,3.53,1.65,16.8,16.8,0,0,1,3.57,1.84,5.5,5.5,0,0,1,1.67,2A6.22,6.22,0,0,1,164.62,56.33Z"/><path class="cls-2" d="M177.78,58.35a12.32,12.32,0,0,0,3.56-.65v4.21a12.7,12.7,0,0,1-5.19,1q-3.41,0-5-1.72A7.48,7.48,0,0,1,169.65,56V46h-2.71V43.6l3.12-1.89,1.63-4.38h3.62v4.41h5.81V46h-5.81V56a2.2,2.2,0,0,0,.68,1.78A2.64,2.64,0,0,0,177.78,58.35Z"/><path class="cls-1" d="M38.49,13.61l-1.06,0L32.35,8.55l-2.64,2.64,3.07,3.08a25,25,0,0,0-4,1.29L19.13,5.91,16.49,8.55l8.8,8.8a27,27,0,0,0-3.07,2.23L2.64,0,0,2.64,19.56,22.2a25.61,25.61,0,0,0-2.27,3L7.93,15.86,5.29,18.5,15.44,28.65a25.49,25.49,0,0,0-1.37,3.94l-3.34-3.35L8.09,31.88l5.27,5.27q-.06.83-.06,1.65A25.2,25.2,0,1,0,38.49,13.61Zm0,43.55A18.36,18.36,0,1,1,56.85,38.8,18.38,18.38,0,0,1,38.49,57.16Z"/><path class="cls-1" d="M28.23,38.8a10.25,10.25,0,0,1,1-4.37A2.8,2.8,0,1,0,24.14,32a15.78,15.78,0,0,0-1.51,6.76,16,16,0,0,0,2.13,8,2.81,2.81,0,0,0,2.43,1.39,2.76,2.76,0,0,0,1.4-.38,2.8,2.8,0,0,0,1-3.82A10.22,10.22,0,0,1,28.23,38.8Z"/><path class="cls-1" d="M51.56,36a2.8,2.8,0,0,0-2.8,2.8,10.8,10.8,0,0,1-.19,2,10.22,10.22,0,0,1-4,6.27,2.8,2.8,0,0,0,3.34,4.5,15.8,15.8,0,0,0,6.12-9.69,15.64,15.64,0,0,0,.3-3.06A2.81,2.81,0,0,0,51.56,36Z"/><circle class="cls-1" cx="38.49" cy="38.8" r="7.78"/></g></g></svg>