<svg xmlns="http://www.w3.org/2000/svg" viewBox="0 0 63.69 64"><defs><style>.cls-1{fill:#ef8e81;}</style></defs><g id="Layer_2" data-name="Layer 2"><g id="Layer_1-2" data-name="Layer 1"><path class="cls-1" d="M38.49,13.61l-1.06,0L32.35,8.55l-2.64,2.64,3.07,3.08a25,25,0,0,0-4,1.29L19.13,5.91,16.49,8.55l8.8,8.8a27,27,0,0,0-3.07,2.23L2.64,0,0,2.64,19.56,22.2a25.61,25.61,0,0,0-2.27,3L7.93,15.86,5.29,18.5,15.44,28.65a25.49,25.49,0,0,0-1.37,3.94l-3.34-3.35L8.09,31.88l5.27,5.27q-.06.83-.06,1.65A25.2,25.2,0,1,0,38.49,13.61Zm0,43.55A18.36,18.36,0,1,1,56.85,38.8,18.38,18.38,0,0,1,38.49,57.16Z"/><path class="cls-1" d="M28.23,38.8a10.25,10.25,0,0,1,1-4.37A2.8,2.8,0,1,0,24.14,32a15.78,15.78,0,0,0-1.51,6.76,16,16,0,0,0,2.13,8,2.81,2.81,0,0,0,2.43,1.39,2.76,2.76,0,0,0,1.4-.38,2.8,2.8,0,0,0,1-3.82A10.22,10.22,0,0,1,28.23,38.8Z"/><path class="cls-1" d="M51.56,36a2.8,2.8,0,0,0-2.8,2.8,10.8,10.8,0,0,1-.19,2,10.22,10.22,0,0,1-4,6.27,2.8,2.8,0,0,0,3.34,4.5,15.8,15.8,0,0,0,6.12-9.69,15.64,15.64,0,0,0,.3-3.06A2.81,2.81,0,0,0,51.56,36Z"/><circle class="cls-1" cx="38.49" cy="38.8" r="7.78"/></g></g></svg>