<svg xmlns="http://www.w3.org/2000/svg" viewBox="0 0 400.17 61"><defs><style>.cls-1{fill:#ef8e81;}.cls-2{fill:#666;}</style></defs><g id="Layer_2" data-name="Layer 2"><g id="Layer_1-2" data-name="Layer 1"><path class="cls-1" d="M85.83,60.19q-18.35,0-18.35-20.14,0-10,5-15.31t14.3-5.3A27.31,27.31,0,0,1,99,22.12l-3.17,8.29c-1.68-.68-3.25-1.23-4.71-1.67a15.26,15.26,0,0,0-4.36-.65q-8.36,0-8.36,11.89,0,11.52,8.36,11.53a19,19,0,0,0,5.73-.83,20.74,20.74,0,0,0,5.28-2.58v9.17a17.12,17.12,0,0,1-5.26,2.29A29.68,29.68,0,0,1,85.83,60.19Z"/><path class="cls-1" d="M124.68,60.19q-9.5,0-14.83-5.24T104.5,40.12q0-9.88,4.94-15.28t13.66-5.4q8.33,0,13,4.75c3.1,3.16,4.64,7.54,4.64,13.11v5.21H115.37a10.31,10.31,0,0,0,2.7,7.13,9.54,9.54,0,0,0,7.1,2.57,29.64,29.64,0,0,0,6.72-.74,34,34,0,0,0,6.61-2.35v8.29a25.32,25.32,0,0,1-6,2.1A38.55,38.55,0,0,1,124.68,60.19Zm-1.51-33.12a6.76,6.76,0,0,0-5.34,2.17,10,10,0,0,0-2.22,6.13h15a8.92,8.92,0,0,0-2.08-6.13A7,7,0,0,0,123.17,27.07Z"/><path class="cls-1" d="M160.15,59.49H149.43V4.78h10.72Z"/><path class="cls-1" d="M182.13,59.49H171.4V4.78h10.73Z"/><path class="cls-2" d="M215.1,28.23h-9.28V59.49H195.1V28.23h-5.91V23.07l5.91-2.89V17.3q0-6.72,3.3-9.81T209,4.4a27.62,27.62,0,0,1,9.88,1.65l-2.75,7.88a19.9,19.9,0,0,0-6-1,3.88,3.88,0,0,0-3.31,1.35,5.6,5.6,0,0,0-1,3.46v2.46h9.28Z"/><path class="cls-2" d="M257,39.77q0,9.58-5.07,15t-14.09,5.41a19.74,19.74,0,0,1-10-2.48,16.41,16.41,0,0,1-6.64-7.12,23.85,23.85,0,0,1-2.32-10.82q0-9.64,5-15T238,19.44a19.83,19.83,0,0,1,10,2.47A16.37,16.37,0,0,1,254.65,29,23.68,23.68,0,0,1,257,39.77Zm-27.18,0q0,5.83,1.92,8.82t6.24,3c2.86,0,4.91-1,6.17-3S246,43.68,246,39.77s-.64-6.81-1.9-8.76-3.34-2.92-6.22-2.92-4.93,1-6.19,2.9S229.8,35.85,229.8,39.77Z"/><path class="cls-2" d="M287.77,19.44a17.26,17.26,0,0,1,3.62.32l-.81,10.06a12,12,0,0,0-3.16-.36q-5.13,0-8,2.64a9.53,9.53,0,0,0-2.86,7.38v20H265.83V20.18H274l1.58,6.61h.53A14.66,14.66,0,0,1,281,21.47,12.19,12.19,0,0,1,287.77,19.44Z"/><path class="cls-2" d="M316.32,60.19q-9.49,0-14.84-5.24t-5.34-14.83q0-9.88,4.94-15.28t13.66-5.4q8.33,0,13,4.75c3.09,3.16,4.64,7.54,4.64,13.11v5.21H307a10.32,10.32,0,0,0,2.71,7.13,9.53,9.53,0,0,0,7.1,2.57,29.64,29.64,0,0,0,6.72-.74,34,34,0,0,0,6.61-2.35v8.29a25.24,25.24,0,0,1-6,2.1A38.38,38.38,0,0,1,316.32,60.19Zm-1.51-33.12a6.78,6.78,0,0,0-5.35,2.17,10,10,0,0,0-2.21,6.13H322.3a8.92,8.92,0,0,0-2.08-6.13A7,7,0,0,0,314.81,27.07Z"/><path class="cls-2" d="M368.49,47.82q0,6-4.2,9.21t-12.57,3.16a39.12,39.12,0,0,1-7.31-.58,27.82,27.82,0,0,1-5.66-1.7V49.05a37.83,37.83,0,0,0,6.73,2.35,27.41,27.41,0,0,0,6.59,1q5.83,0,5.84-3.37a2.84,2.84,0,0,0-.77-2.06,11,11,0,0,0-2.68-1.79q-1.89-1-5.06-2.34a32,32,0,0,1-6.66-3.52,9.73,9.73,0,0,1-3.09-3.71,12.14,12.14,0,0,1-1-5.15,9.33,9.33,0,0,1,4.06-8.1q4.06-2.86,11.51-2.87a32.73,32.73,0,0,1,13.82,3.1l-3.24,7.73q-2.94-1.26-5.51-2.07a17.37,17.37,0,0,0-5.24-.81q-4.75,0-4.75,2.57a3,3,0,0,0,1.53,2.49,40.59,40.59,0,0,0,6.7,3.13,31,31,0,0,1,6.75,3.48,10.28,10.28,0,0,1,3.16,3.73A11.43,11.43,0,0,1,368.49,47.82Z"/><path class="cls-2" d="M393.42,51.65a23.31,23.31,0,0,0,6.75-1.23v8a24.22,24.22,0,0,1-9.85,1.79q-6.44,0-9.37-3.25T378,47.18V28.23h-5.13V23.7l5.9-3.59,3.1-8.29h6.85v8.36h11v8.05h-11v19A4.21,4.21,0,0,0,390,50.56,5.12,5.12,0,0,0,393.42,51.65Z"/><path class="cls-1" d="M36.69,13l-1,0L30.83,8.15l-2.52,2.52,2.93,2.93a24.55,24.55,0,0,0-3.81,1.23l-9.2-9.2L15.71,8.15l8.4,8.39a24.62,24.62,0,0,0-2.93,2.13L2.52,0,0,2.52,18.65,21.16A23.34,23.34,0,0,0,16.48,24L7.56,15.12,5,17.64l9.67,9.67a23.72,23.72,0,0,0-1.3,3.75l-3.19-3.19L7.71,30.39l5,5c0,.52-.06,1-.06,1.57a24,24,0,1,0,24-24Zm0,41.51A17.5,17.5,0,1,1,54.18,37,17.51,17.51,0,0,1,36.69,54.48Z"/><path class="cls-1" d="M26.9,37a9.76,9.76,0,0,1,.93-4.16A2.67,2.67,0,1,0,23,30.54,14.89,14.89,0,0,0,21.57,37a15.16,15.16,0,0,0,2,7.59,2.68,2.68,0,0,0,2.31,1.33,2.61,2.61,0,0,0,1.34-.37,2.67,2.67,0,0,0,1-3.64A9.79,9.79,0,0,1,26.9,37Z"/><path class="cls-1" d="M49.14,34.32A2.67,2.67,0,0,0,46.47,37a9.75,9.75,0,0,1-4,7.87,2.67,2.67,0,0,0,1.59,4.81,2.62,2.62,0,0,0,1.59-.53,15.07,15.07,0,0,0,5.84-9.24A15.68,15.68,0,0,0,51.81,37,2.67,2.67,0,0,0,49.14,34.32Z"/><circle class="cls-1" cx="36.69" cy="36.98" r="7.41"/></g></g></svg>